# xmcd
#
# Track frame offsets:
#	150
#	14447
#	30707
#	49077
#	62427
#	79162
#	94545
#	109962
#	124975
#	138755
#	156742
#	175720
#	193135
#	210990
#	227760
#	244217
#
# Disc length: 3524 seconds
#
# Revision: 1
# Processed by: cddbd v1.5.2PL0 Copyright (c) Steve Scherf et al.
# Submitted via: audiograbber 1.83.01
#
DISCID=d80dc210
DTITLE=Various Artist - MH1100
DYEAR=1900
DGENRE=Karaoke
TTITLE0=O'Neal, Jamie - When I Think About Angels
TTITLE1=Hill, Faith - If My Heart Had Wings
TTITLE2=Andrews, Jessica - Who I Am
TTITLE3=Trick Pony - Pour Me
TTITLE4=Tillis, Pam - Please
TTITLE5=McBride, Martina - It's My Time
TTITLE6=Rimes, LeAnn - But I Do Love You
TTITLE7=Loveless, Patty - Last Thing On My Mind, The
TTITLE8=Dixie Chicks - If I Fall You're Going Down With Me
TTITLE9=Evans, Sara - I Could Not Ask For More
TTITLE10=Johnson, Carolyn Dawn - Georgia
TTITLE11=Kinleys, The - I'm In
TTITLE12=Tennison, Chalee - Go Back
TTITLE13=Messina, Jo Dee - Downtime
TTITLE14=Womack, Lee Ann - Why They Call It Falling
TTITLE15=Shedaisy - Still Holding Out For You
EXTD=
EXTT0=
EXTT1=
EXTT2=
EXTT3=
EXTT4=
EXTT5=
EXTT6=
EXTT7=
EXTT8=
EXTT9=
EXTT10=
EXTT11=
EXTT12=
EXTT13=
EXTT14=
EXTT15=
PLAYORDER=
